<?xml version="1.0" encoding="UTF-8" standalone="no"?><!DOCTYPE svg PUBLIC "-//W3C//DTD SVG 1.1//EN" "http://www.w3.org/Graphics/SVG/1.1/DTD/svg11.dtd"><svg width="200px" height="141px" version="1.1" xmlns="http://www.w3.org/2000/svg" xmlns:xlink="http://www.w3.org/1999/xlink" xml:space="preserve" xmlns:serif="http://www.serif.com/" style="fill-rule:evenodd;clip-rule:evenodd;stroke-linejoin:round;stroke-miterlimit:2;"><g transform="matrix(1,0,0,1,2.84217e-14,-59.8043)"><g transform="matrix(1.20377,0,0,1.35494,-5.83411,-26.8053)"><rect x="4.847" y="63.921" width="166.144" height="103.47" style="fill:white;fill-opacity:0;"/></g><g id="Pointer" transform="matrix(6.12323e-17,-1,1,6.12323e-17,-270.078,365.006)"><path d="M235,345c0,0 8,20.582 8,25c0,4.418 -3.582,8 -8,8c-4.418,-0 -8,-3.582 -8,-8c-0,-4.418 8,-25 8,-25Zm0,22c-1.656,0 -3,1.344 -3,3c0,1.656 1.344,3 3,3c1.656,0 3,-1.344 3,-3c0,-1.656 -1.344,-3 -3,-3Z" style="fill:rgb(131,147,167);"/></g></g></svg>